<svg xmlns="http://www.w3.org/2000/svg" width="24" height="24" fill="none" viewBox="0 0 24 24"><g id="🦆 icon &quot;eye password hide&quot;"><g id="Group"><path id="Vector" stroke="#000" stroke-linecap="round" stroke-linejoin="round" stroke-width="2" d="M1 1L22.5008 22.5008"/><path id="Vector_2" stroke="#000" stroke-linecap="round" stroke-linejoin="round" stroke-width="2" d="M6.06642 6.07696C2.78972 8.30517 1 11.7504 1 11.7504C1 11.7504 4.90924 19.2757 11.7504 19.2757C13.9546 19.2757 15.8543 18.4945 17.4171 17.4356M10.6754 4.28769C11.0252 4.24674 11.3836 4.2251 11.7504 4.2251C18.5915 4.2251 22.5008 11.7504 22.5008 11.7504C22.5008 11.7504 21.7571 13.182 20.3507 14.7965"/><path id="Vector_3" stroke="#000" stroke-linecap="round" stroke-linejoin="round" stroke-width="2" d="M13.9006 14.1544C13.33 14.665 12.5766 14.9756 11.7505 14.9756C9.96928 14.9756 8.52539 13.5317 8.52539 11.7505C8.52539 10.865 8.88223 10.0629 9.45995 9.4801"/></g></g></svg>